<svg xmlns="http://www.w3.org/2000/svg" width="760" height="150" viewBox="0 0 760 150">
<rect width="760" height="150" fill="#ffffff"/>
<g transform="translate(20,20)"><rect width="96" height="96" rx="22" fill="#f8fafc" stroke="#d1d5db" stroke-width="2"/><circle cx="48" cy="39" r="24" fill="#fff" stroke="#0057B8" stroke-width="7"/><circle cx="48" cy="39" r="8" fill="#0057B8"/><rect x="18" y="68" width="60" height="18" rx="9" fill="#0057B8"/><text x="48" y="81" text-anchor="middle" font-family="Inter, SF Pro Display, Arial, sans-serif" font-size="12" font-weight="900" fill="#fff">M3 AV</text><text x="48" y="118" text-anchor="middle" font-family="Inter, SF Pro Text, Arial, sans-serif" font-size="10" fill="#374151">Aghia Varvara</text></g>
<g transform="translate(142,20)"><rect width="96" height="96" rx="22" fill="#f8fafc" stroke="#d1d5db" stroke-width="2"/><circle cx="48" cy="39" r="24" fill="#fff" stroke="#0057B8" stroke-width="7"/><circle cx="48" cy="39" r="8" fill="#0057B8"/><rect x="18" y="68" width="60" height="18" rx="9" fill="#0057B8"/><text x="48" y="81" text-anchor="middle" font-family="Inter, SF Pro Display, Arial, sans-serif" font-size="12" font-weight="900" fill="#fff">M3 AM</text><text x="48" y="118" text-anchor="middle" font-family="Inter, SF Pro Text, Arial, sans-serif" font-size="10" fill="#374151">Aghia Marina</text></g>
<g transform="translate(264,20)"><rect width="96" height="96" rx="22" fill="#f8fafc" stroke="#d1d5db" stroke-width="2"/><circle cx="48" cy="39" r="24" fill="#fff" stroke="#0057B8" stroke-width="7"/><circle cx="48" cy="39" r="8" fill="#0057B8"/><rect x="18" y="68" width="60" height="18" rx="9" fill="#0057B8"/><text x="48" y="81" text-anchor="middle" font-family="Inter, SF Pro Display, Arial, sans-serif" font-size="12" font-weight="900" fill="#fff">M3 AP</text><text x="48" y="118" text-anchor="middle" font-family="Inter, SF Pro Text, Arial, sans-serif" font-size="10" fill="#374151">Aghia Paraskevi</text></g>
<g transform="translate(386,20)"><rect width="96" height="96" rx="22" fill="#f8fafc" stroke="#d1d5db" stroke-width="2"/><circle cx="48" cy="39" r="24" fill="#fff" stroke="#009739" stroke-width="7"/><circle cx="48" cy="39" r="8" fill="#009739"/><rect x="18" y="68" width="60" height="18" rx="9" fill="#009739"/><text x="48" y="81" text-anchor="middle" font-family="Inter, SF Pro Display, Arial, sans-serif" font-size="12" font-weight="900" fill="#fff">M1 AN</text><text x="48" y="118" text-anchor="middle" font-family="Inter, SF Pro Text, Arial, sans-serif" font-size="10" fill="#374151">Aghios Nikolaos</text></g>
<g transform="translate(508,20)"><rect width="96" height="96" rx="22" fill="#f8fafc" stroke="#d1d5db" stroke-width="2"/><circle cx="48" cy="39" r="24" fill="#fff" stroke="#E30613" stroke-width="7"/><circle cx="48" cy="39" r="8" fill="#E30613"/><rect x="18" y="68" width="60" height="18" rx="9" fill="#E30613"/><text x="48" y="81" text-anchor="middle" font-family="Inter, SF Pro Display, Arial, sans-serif" font-size="12" font-weight="900" fill="#fff">M2 NK</text><text x="48" y="118" text-anchor="middle" font-family="Inter, SF Pro Text, Arial, sans-serif" font-size="10" fill="#374151">Neos Kosmos</text></g>
<g transform="translate(630,20)"><rect width="96" height="96" rx="22" fill="#f8fafc" stroke="#d1d5db" stroke-width="2"/><circle cx="48" cy="39" r="24" fill="#fff" stroke="#00A3E0" stroke-width="7"/><circle cx="48" cy="39" r="8" fill="#00A3E0"/><rect x="18" y="68" width="60" height="18" rx="9" fill="#00A3E0"/><text x="48" y="81" text-anchor="middle" font-family="Inter, SF Pro Display, Arial, sans-serif" font-size="12" font-weight="900" fill="#fff">T7 AT</text><text x="48" y="118" text-anchor="middle" font-family="Inter, SF Pro Text, Arial, sans-serif" font-size="10" fill="#374151">Aghia Triada</text></g>
</svg>