<svg xmlns="http://www.w3.org/2000/svg" width="128" height="128" viewBox="0 0 128 128" role="img" aria-label="P1A ← Ano Liosia">
  <title>P1A ← Ano Liosia</title>
  <desc>train directional icon for Ano Liosia ↔ Airport. Visible label: ← A. Liosia. Full destination: Ano Liosia.</desc>

  <rect width="128" height="128" rx="28" fill="#FFFFFF"/>
  <rect x="5" y="5" width="118" height="118" rx="24" fill="#F8FAFC" stroke="#D1D5DB" stroke-width="2"/>

  <rect x="13" y="12" width="42" height="22" rx="11" fill="#4B5563"/>
  <text x="34" y="27" text-anchor="middle"
        font-family="Inter, SF Pro Display, Arial, sans-serif"
        font-size="12" font-weight="900" fill="#FFFFFF">P1A</text>

  
  <g aria-hidden="true">
    <path d="M40 35h48c7 0 12 5 12 12v26c0 7-5 12-12 12H40c-7 0-12-5-12-12V47c0-7 5-12 12-12z" fill="#FFFFFF" stroke="#4B5563" stroke-width="6" stroke-linejoin="round"/>
    <path d="M43 50h42" stroke="#4B5563" stroke-width="6" stroke-linecap="round" opacity="0.25"/>
    <circle cx="48" cy="71" r="4.8" fill="#4B5563"/>
    <circle cx="80" cy="71" r="4.8" fill="#4B5563"/>
    <path d="M47 89h34" stroke="#111827" stroke-width="4" stroke-linecap="round" opacity="0.82"/>
  </g>

  <rect x="14" y="96" width="100" height="22" rx="11" fill="#FFFFFF" stroke="#4B5563" stroke-width="2"/>
  <text x="64" y="111" text-anchor="middle"
        font-family="Inter, SF Pro Display, Arial, sans-serif"
        font-size="12" font-weight="900" fill="#111827">← A. Liosia</text>
</svg>
